<svg width="764" height="590" viewBox="0 0 764 590" fill="none" xmlns="http://www.w3.org/2000/svg">
<path fill-rule="evenodd" clip-rule="evenodd" d="M391.936 72.7962C389.627 79.0887 387.319 85.3821 385.01 91.6746C383.53 95.7071 382.051 99.7387 380.572 103.771C380.047 105.201 379.755 106.667 378.74 107.66C376.348 109.997 372.055 111.484 369.18 113.128C367.255 114.23 365.328 115.331 363.403 116.433C362.41 117.002 360.208 117.715 359.512 118.659C358.746 119.698 359.108 121.607 359.108 123.045V135.454V158.838C369.056 157.557 379.004 156.277 388.952 154.997C375.698 170.743 362.445 186.489 349.192 202.235C345.925 206.115 341.96 209.851 339.526 214.365C334.347 223.976 329.284 233.656 324.164 243.3C319.398 252.277 314.632 261.254 309.866 270.231L352.743 268.352C363.844 267.866 375.248 268.597 385.944 265.357C394.762 262.687 403.578 260.017 412.396 257.347C413.569 256.991 417.221 256.59 418.053 255.618C418.831 254.707 418.814 251.268 419.034 250.103C423.196 228.078 428.494 203.807 440.641 184.848C449.349 171.257 461.1 159.358 471.862 147.506C476.062 142.881 480.336 138.311 484.387 133.545C485.425 132.324 486.924 130.939 487.61 129.456C488.053 128.498 488.673 126.673 488.397 125.822C488.278 125.454 485.509 124.131 485.112 123.868C482.306 122.011 479.525 120.115 476.737 118.228C468.905 112.926 461.08 107.611 453.203 102.379C447.061 98.2998 440.937 93.9747 434.46 90.4693C427.746 86.8356 420.351 84.2781 413.312 81.4073C406.199 78.5057 399.072 75.6371 391.936 72.7962Z" fill="#7FBBCA"/>
<path fill-rule="evenodd" clip-rule="evenodd" d="M633.366 408.961C629.951 412.275 623.73 416.723 618.814 414.7C616.344 413.685 614.235 411.455 611.985 410.017C609.343 408.326 606.858 406.636 604.618 404.383C600.148 399.887 596.764 393.32 591.484 389.801C589.71 388.617 586.247 388.364 585.016 386.475C584.464 385.628 584.413 384.342 584.514 383.363C584.735 381.253 585.841 381.378 583.993 379.829H586.864C586.92 378.687 585.812 378.592 584.987 378.74C585.371 376.929 585.762 369.844 582.556 373.055C579.778 375.838 581.168 380.456 579.2 383.47C577.694 385.779 573.697 383.91 573.157 381.37C572.915 380.229 574.135 378.448 574.281 377.329C574.6 374.849 573.524 372.704 571.962 370.825C568.534 373.177 570.477 378.044 568.524 381.133C566.756 383.929 562.82 382.625 560.129 382.133C556.903 381.543 553.255 382.14 550.168 381.355C545.508 380.171 547.248 374.537 546.787 370.9C546.293 367.004 542.469 361.597 543.618 357.667C544.852 353.447 552.066 352.535 555.514 351.511C563.395 349.17 574.637 348.72 580.496 342.167C585.156 347.519 588.904 353.646 593.792 358.798C599.071 364.362 604.71 369.499 609.778 375.288C615.053 381.312 620.498 387.221 625.581 393.42C627.8 396.124 629.747 399.038 632.041 401.677C634.081 404.024 636.231 406.182 633.366 408.961ZM399.12 304.887C401.542 303.561 401.85 304.392 401.849 307.123C401.153 305.812 400.461 305.461 399.12 304.887ZM378.588 357.976V353.162C380.922 353.099 379.487 357.217 378.588 357.976ZM378.017 365.145C378.017 363.013 377.961 360.984 378.558 358.91C378.871 361.169 379.47 363.125 378.017 365.145ZM388.055 511.586C390.199 511.793 393.504 510.272 395.307 512.004C397.16 513.784 397.011 518.965 397.45 521.37C398.175 525.344 398.817 529.331 399.428 533.324C399.829 535.942 400.324 538.601 397.45 539.603C393.202 541.083 387.131 538.971 382.703 538.779C373.956 538.4 365.213 537.873 356.458 537.69C347.973 537.513 339.468 537.653 331.021 538.562C327.206 538.972 323.475 539.697 319.698 540.354C317.707 540.7 312.373 542.148 310.575 540.42C307.193 537.168 312.817 529.574 315.235 527.429C319.725 523.449 326.109 520.579 331.738 518.85C334.747 517.926 339.762 515.332 342.131 518.233C343.95 520.459 343.877 523.429 346.483 525.116C352.519 529.023 348.987 517.815 345.215 516.435C347.748 510.331 352.576 518.95 354.578 521.02C355.291 521.757 357.608 524.186 358.615 522.965C359.368 522.05 357.864 518.775 357.585 517.884C357.161 516.53 356.089 514.471 356.397 513.003C356.955 510.346 360.573 509.623 362.741 509.402C366.102 509.059 369.399 510.156 372.722 510.522C377.818 511.085 382.953 511.093 388.055 511.586ZM354.308 261.366C347.673 261.91 340.996 260.865 334.376 261.72C328.114 262.53 322.212 264.897 316.308 267.072C325.085 245.876 336.441 226.58 350.282 208.505C357.174 199.502 364.587 190.561 372.035 182.041C375.5 178.077 379.085 174.244 382.663 170.391C385.855 166.954 388.142 161.117 391.972 158.551C395.241 156.36 400.955 157.922 404.578 158.058C408.673 158.212 413.657 158.595 417.651 157.192C420.545 156.174 421.341 153.46 417.718 153.37C413.445 153.264 409.243 153.722 404.914 153.31C393.698 152.243 382.886 150.489 371.579 151.484C368.989 151.711 365.579 152.847 363.037 152.506C361.209 152.26 362.411 153.206 361.14 151.696C360.654 151.118 360.067 149.76 359.923 148.992C359.114 144.682 361.413 138.522 361.963 134.182C362.471 130.166 362.021 125.752 362.973 121.841C363.84 118.281 366.482 117.807 369.737 117.426C378.64 116.386 387.726 115.832 396.669 115.047C417.08 113.257 438.138 110.557 458.409 114.98C465.729 116.578 474.655 119.047 481.194 123.002C483.239 124.238 485.302 125.694 484.558 128.255C483.786 130.914 480.004 133.723 478.13 135.474C464.283 148.418 450.91 161.62 441.183 178.227C428.778 199.405 421.66 222.277 417.483 246.545C416.585 251.766 415.751 254.499 410.534 256.001C404.934 257.615 399.528 258.664 393.722 259.155C380.595 260.265 367.428 260.288 354.308 261.366ZM358.754 121.118C357.748 128.827 356.386 136.519 356.252 144.289C356.201 147.224 355.931 148.694 352.901 149.349C349.327 150.12 345.695 150.695 342.105 151.495C324.782 155.361 307.786 160.109 290.837 165.452C274.366 170.647 258.165 176.491 241.324 180.339C234.079 181.995 225.602 183.11 219.004 186.775C211.905 190.719 212.839 197.186 212.202 204.288C211.351 213.777 208.618 222.965 207.657 232.45C207.197 236.983 206.779 241.542 206.848 246.103C206.907 249.991 207.448 254.29 204.91 257.562C199.818 250.553 197.404 241.737 196.401 233.146C195.913 228.969 196.106 224.76 195.966 220.564C195.854 217.186 195.927 211.813 193.79 208.992C189.145 202.862 183.104 227.43 182.529 230.053C181.563 234.469 180.766 238.922 179.804 243.338C179.377 245.296 178.829 252.412 176.282 253.121C171.004 254.591 172.162 239.318 172.079 236.993C171.912 232.299 171.798 227.6 171.905 222.902C171.982 219.511 172.62 215.831 172.241 212.439C171.312 204.109 166.764 212.885 165.485 215.986C162.253 223.813 160.792 232.191 157.894 240.144C157.412 241.467 156.279 245.92 154.485 246.003C152.489 246.095 152.504 241.495 152.39 240.152C151.728 232.363 149.49 224.628 150.165 216.758C150.847 208.812 153.552 200.643 157.381 193.731C165.474 179.118 180.09 170.727 194.09 163.084C210.112 154.338 227.026 147.429 244.302 141.8C265.079 135.03 286.413 129.553 307.875 125.655C318.794 123.672 329.882 122.254 340.913 121.117C344.79 120.718 348.668 120.484 352.495 119.724C353.939 119.437 359.151 118.072 358.754 121.118ZM369.914 96.1696C364.44 96.2141 358.848 93.4815 353.515 92.3522C347.166 91.0063 340.965 89.0588 334.627 87.6537C322.216 84.9027 309.798 82.22 297.398 79.4083C292.015 78.1876 286.606 77.1252 281.243 75.8138C275.507 74.411 269.309 72.8469 263.437 74.358C254.537 76.6489 250.777 86.675 247.51 94.4994C245.201 100.026 243.393 106.186 239.793 110.996C238.511 112.71 236.689 114.755 234.365 114.2C230.047 113.169 230.733 107.286 231.283 104.034C232.08 99.3147 233.208 94.6508 234.112 89.953C234.476 88.0571 237.298 75.6478 232.26 77.5692C228.523 78.9943 226.546 88.3805 225.131 91.733C224.08 94.2244 222.966 96.6996 221.786 99.1295C220.212 102.371 215.721 113.2 210.748 111.804C203.632 109.805 210.458 90.5415 211.67 86.4814C212.336 84.2528 219.569 67.351 213.464 68.7322C210.864 69.3215 208.331 74.2942 207.005 76.3554C204.654 80.0114 202.31 83.6935 200.098 87.4394C197.821 91.2921 196.659 95.6771 194.401 99.4737C193.213 101.472 190.789 104.135 188.423 102.285C184.733 99.403 186.92 89.3792 187.566 85.5887C188.768 78.5418 191.754 71.3173 195.851 65.5564C202.007 56.9 213.623 54.1029 223.391 52.4212C235.999 50.2502 248.782 50.844 261.444 52.1285C275.683 53.5735 289.705 55.1208 303.74 58.0754C317.886 61.053 332.038 64.0069 345.966 67.9448C352.527 69.8001 359.182 71.4449 365.65 73.6228C372.526 75.9375 379.236 78.8183 386.304 80.4862C383.818 86.874 381.331 93.2618 378.845 99.6504C376.466 97.2266 373.218 96.1419 369.914 96.1696ZM491.769 113.772C493.949 112.544 496.357 111.965 497.153 109.252C497.856 106.854 496.654 104.138 496.08 101.836C494.473 95.3921 494.05 88.717 495.472 82.197C496.831 84.3334 501.919 92.5512 505.014 87.5761C506.881 84.5754 501.879 80.2588 500.419 78.1492C503.623 76.1134 508.198 70.6497 511.89 73.9447C514.276 76.075 515.286 78.1262 518.501 79.1617C522.404 80.4193 526.079 80.1312 530.064 79.784C532.855 79.5412 533.527 79.1579 534.617 81.3704C535.473 83.1097 535.915 85.2622 536.415 87.1298C537.4 90.8119 539.681 98.0671 536.98 101.516C534.614 104.538 525.432 101.947 524.157 105.848C523.462 107.975 526.781 108.051 528.049 109.103C529.62 110.406 530.918 112.48 531.772 114.332C532.404 115.702 533.365 117.965 532.289 119.365C530.803 121.303 528.048 119.833 526.85 118.425C525.259 116.555 524.743 113.997 523.416 111.96C520.98 108.222 520.834 111.195 520.171 113.88C519.482 116.668 517.853 116.476 515.357 116.834C510.978 117.463 506.553 118.351 502.291 119.559C500.106 120.178 497.989 120.967 495.908 121.889C494.567 122.482 492.243 124.279 490.788 124.296C488.093 124.327 486.224 119.685 484.832 117.748C487.143 116.42 489.447 115.08 491.769 113.772ZM636.533 398.034C629.8 389.713 623.969 380.672 617.327 372.278C610.775 363.999 603.196 356.76 595.843 349.261C592.373 345.722 589.048 341.839 585.218 338.703C582.36 336.363 580.161 336.327 576.724 337.364C566.958 340.309 557.013 343.854 547.771 348.249C539.164 352.342 531.325 357.598 521.991 359.88C512.465 362.21 502.559 362.959 492.795 362.381C482.779 361.789 473.333 359.643 463.808 356.489C454.788 353.503 445.383 350.894 437.668 344.974C429.58 338.769 423.332 329.843 417.542 321.447C414.611 317.198 411.701 312.734 409.726 307.917C408.012 303.737 406.892 298.804 403.817 295.397C403.063 296.498 402.124 297.442 401.741 298.735C401.566 299.322 402.594 299.304 402.489 299.771C402.29 300.651 401.153 301.548 400.492 302.027C398.117 303.747 398.103 302.378 398.726 305.596C399.088 307.472 398.402 311.704 395.431 310.321C396.525 311.669 394.787 313.371 394.219 314.482C393.829 314.02 393.343 313.86 392.763 313.999C393.849 316.227 393.207 316.286 392.155 318.055C391.962 318.378 391.281 320.071 391.379 319.928C390.303 321.506 389.06 321.903 388.432 323.868C387.917 325.482 388.049 327.257 387.475 328.868C386.78 327.88 386.085 326.891 385.391 325.903C385.532 326.681 385.816 327.831 386.146 328.537C386.353 328.978 387.242 330.007 387.231 330.247C387.182 331.146 386.093 330.93 385.782 331.706C385.2 333.16 386.042 333.374 385.724 334.793C385.36 336.422 384.383 335.77 383.918 337.158C383.83 337.422 384.516 338.459 384.407 339.028C384.254 339.831 383.547 340.281 383.297 340.995C382.661 342.813 382.893 344.143 382.01 345.886C381.668 346.562 381.171 347.013 380.93 347.781C380.719 348.457 381.173 349.896 380.766 350.501C378.797 353.42 379.074 348.392 379.223 347.145C380.476 336.677 384.495 325.872 388.174 316.087C390.002 311.226 391.781 306.213 394.072 301.556C394.994 299.681 396.059 297.746 397.583 296.312C399.511 294.497 402.246 293.771 403.992 291.745C403.717 292.064 405.885 289.952 405.538 290.646C405.849 290.025 405.307 289.185 405.499 288.584C405.739 287.838 406.192 287.681 406.696 287.028C407.603 285.856 408.679 285.272 407.256 283.779C409.369 283.298 410.379 282.592 410.801 280.262C411.109 278.557 410.487 278.669 411.573 277.532C412.663 276.391 413.215 277.282 413.903 275.305C414.724 272.94 415.269 269.723 415.762 267.248C416.192 265.087 415.149 261.909 416.918 260.383C419.158 258.451 421.163 259.269 420.761 255.384C420.37 251.595 421.513 249.301 422.662 245.716C424.955 238.56 425.841 231.005 427.851 223.763C432.142 208.31 439.721 194.376 447.872 180.773C455.403 168.203 465.931 157.494 476.099 147.181C478.882 144.356 481.635 141.49 484.135 138.394C486.288 135.727 487.271 132.097 489.341 129.565C490.598 128.028 492.939 127.37 494.694 126.555C497.622 125.196 501.111 123.422 504.415 123.697C503.102 128.255 502.674 133.581 506.549 136.999C511.25 141.145 515.511 136.837 519.82 134.473C527.675 130.164 538.909 134.12 545.758 127.662C547.39 126.124 547.845 123.666 549.54 122.229C550.785 121.176 552.555 120.909 553.956 120.124C558.213 117.738 560.279 113.372 558.622 108.548C557.107 104.138 554.753 102.609 559.992 100.374C564.245 98.561 565.862 95.8292 563.937 90.9656C562.101 86.3285 558.74 85.7946 555.558 82.7601C552.477 79.8209 556.016 76.3999 558.325 74.1936C561.302 71.3473 561.871 68.7822 558.42 65.8222C554.805 62.7232 549.646 62.8315 545.433 64.3641C540.668 66.0965 537.53 68.9765 535.514 73.6435C533.46 78.395 528.371 77.0691 524.25 75.7446C520.308 74.4786 519.282 71.7468 516.694 68.8052C513.816 65.5333 507.949 68.3312 504.555 69.8262C496.192 73.506 487.882 79.3138 487.55 89.6012C487.353 95.7355 489.872 100.949 491.182 106.707C492.381 111.973 484.165 111.558 482.742 116.651C467.566 108.379 450.665 105.848 433.7 105.285C415.669 104.685 397.379 104.205 379.502 107.134C383.652 99.6896 385.843 91.5264 389.453 83.8787C390.492 81.6769 390.94 81.8651 393.234 82.5304C397.639 83.808 402.012 85.2377 406.409 86.5536C422.471 91.3612 438.217 97.1537 453.748 103.498C455.257 104.115 458.627 105.827 459.95 103.965C461.477 101.818 457.945 99.1703 456.516 98.0901C450.262 93.3663 442.512 90.4993 435.509 87.1851C420.197 79.9415 403.241 76.5029 387.264 71.123C352.773 59.5066 317.09 50.6842 281.246 44.8572C272.499 43.4352 263.659 43.227 254.873 42.1715C247.092 41.2366 239.296 41.2581 231.515 42.2237C217.144 44.0083 200.483 47.8587 192.366 61.4041C185.038 73.6343 180.147 87.3849 182.017 101.892C182.578 106.249 184.371 111.41 189.593 110.287C193.215 109.508 195.138 106.339 196.82 103.246C199.361 98.5733 201.871 93.901 204.625 89.3538C205.646 96.1719 201.934 102.876 202.518 109.822C202.915 114.535 205.444 121.981 211.387 120.647C219.532 118.818 222.884 105.716 226.8 99.4307C226.999 104.272 225.351 109.044 225.855 113.896C226.353 118.689 229.99 123.214 235.098 122.557C239.917 121.937 243.048 116.622 245.094 112.62C247.942 107.052 249.988 101.081 252.769 95.4751C255.376 90.2204 258.464 83.9647 264.688 82.9775C270.243 82.0956 276.609 84.1368 282.095 84.9788C297.315 87.3142 312.228 91.2905 327.281 94.5033C343.421 97.9472 359.943 100.039 375.585 105.596C370.085 113.305 355.692 111.639 347.498 112.467C335.116 113.717 322.575 114.659 310.263 116.504C298.103 118.326 286.197 121.561 274.132 123.91C262.131 126.246 250.15 128.586 238.537 132.57C216.976 139.967 195.055 149.329 176.058 162.236C167.219 168.242 159.367 175.106 153.907 184.586C148.412 194.125 145.771 204.912 144.764 215.884C144.137 222.717 145.202 228.63 146.488 235.28C147.419 240.094 147.72 248.155 151.469 251.681C158.625 258.41 164.566 231.116 165.888 227.819C166.839 233.222 165.283 263.656 176.765 261.181C181.889 260.077 183.052 252.835 183.901 248.473C185.452 240.521 186.84 232.409 189.492 224.75C191.194 235.069 191.903 245.82 195.569 255.675C198.005 262.221 204.953 273.835 209.797 262.629C213.431 254.226 212.184 244.581 212.62 235.658C213.103 225.771 215.859 216.235 216.835 206.444C217.214 202.651 216.871 198.377 220.573 196.307C223.75 194.531 228.397 193.953 231.866 192.961C242.142 190.023 252.485 187.323 262.713 184.206C272.945 181.087 283.035 177.444 293.13 173.887C302.785 170.487 312.644 168.553 322.416 165.641C327.972 163.984 333.461 162.252 339.095 160.869C341.717 160.226 344.37 159.725 346.986 159.059C348.925 158.566 351.48 156.704 353.474 156.738C355.525 156.772 356.297 158.561 358.649 158.701C361.182 158.852 363.758 158.276 366.276 158.077C372.413 157.593 378.936 156.809 385.059 157.685C381.379 162.179 376.409 165.286 372.054 169.008C367.03 173.302 362.169 177.938 357.878 183.009C349.244 193.211 341.084 203.994 333.503 215.047C326.025 225.95 320.004 237.882 314.769 250.072C312.161 256.146 309.629 262.354 307.827 268.738C307.087 271.361 306.482 273.994 305.146 276.379C303.92 278.567 302.193 280.453 303.642 283.095C304.639 282.452 305.535 281.653 306.438 280.881C305.395 288.441 303.146 295.755 301.989 303.292C300.849 310.718 300.896 318.355 300.969 325.854C301.125 341.56 302.259 356.91 305.353 372.315C308.482 387.892 312.502 403.351 317.571 418.379C322.45 432.848 327.347 448.021 334.158 461.658C341.432 476.223 350.086 491.537 360.616 503.866C353.738 506.767 344.984 506.225 337.701 507.393C330.088 508.615 323.502 510.92 317.014 515.258C310.45 519.647 306.887 525.299 305.979 533.302C305.335 538.998 303.42 546.885 310.678 548.381C315.898 549.458 321.734 547.69 326.965 547.253C336.115 546.489 345.278 546.012 354.449 545.601C363.595 545.19 372.744 544.828 381.893 544.536C386.196 544.398 390.502 544.329 394.804 544.17C396.732 544.099 397.901 544.069 399.63 544.643C400.997 545.097 400.897 546.039 402.419 544.874C404.873 542.994 404.368 537.067 404.3 534.461C404.195 530.44 403.825 526.372 403.063 522.426C402.611 520.082 397.123 504.968 401.391 504.332C396.433 498.722 394.453 490.712 392.226 483.681C389.435 474.873 386.986 466.089 385.063 457.029C380.956 437.677 379.141 418.113 379.141 398.312C398.179 410.395 418.323 416.941 440.748 417.67C463.043 418.396 487.536 416.511 508.707 408.874C518.51 405.337 527.292 400.693 535.697 394.435C538.71 392.193 541.938 387.113 545.892 387.2C550.611 387.305 555.895 389.144 560.582 389.93C569.544 391.435 581.241 392.284 588.829 397.991C592.95 401.092 595.904 405.432 599.582 409.004C602.38 411.722 606.08 413.198 608.857 415.916C611.853 418.848 610.663 422.679 615.631 422.917C619.878 423.119 624.535 421.359 628.197 419.294C635.504 415.174 643.286 406.381 636.533 398.034Z" fill="#2D3D8B"/>
<path fill-rule="evenodd" clip-rule="evenodd" d="M566.298 202.068C576.992 209.89 589.258 215.233 600.433 222.277C603.23 224.04 611.944 227.7 611.86 230.971C611.81 232.883 609.192 235.28 608.045 236.606C606.081 238.876 604.232 241.17 602.419 243.571C594.121 254.568 586.307 265.669 577.313 276.114C575.959 277.685 571.88 285.187 570.563 281.461C569.967 279.772 570.458 277.873 568.903 276.299C568.102 275.487 565.008 275.04 565.909 273.3C566.51 273.578 567.111 273.857 567.713 274.134C567.246 272.744 567.28 271.221 566.58 269.906C566.145 269.09 565.295 268.703 565.001 267.784C564.593 266.513 565.284 265.036 565.168 263.726C565.054 262.421 564.397 261.186 564.005 259.954C561.677 252.649 560.843 245.286 559.651 237.75C558.472 230.292 556.636 223.069 555.915 215.529C555.154 207.564 554.22 199.616 552.975 191.716C555.198 192.037 556.906 194.524 558.478 195.929C560.949 198.139 563.632 200.119 566.298 202.068ZM557.915 279.173C557.405 278.761 557.005 278.254 556.717 277.653C561.959 274.98 558.796 279.54 557.915 279.173ZM554.728 273.471C552.443 274.12 550.802 274.251 549.04 273.283C548.873 273.192 549.066 272.484 548.764 272.339C548.501 272.213 548.099 272.369 547.873 272.251C547.106 271.849 545.763 272.729 545.633 271.191C548.548 270.273 551.416 268.577 554.494 268.291C558.772 267.895 558.574 272.379 554.728 273.471ZM544.718 264.606C541.601 265.357 539.033 267.11 535.721 266.652C532.612 266.223 529.91 264.563 527.458 262.65C533.593 260.862 540.027 260.539 546.156 258.809C548.152 258.246 550.775 256.761 552.926 257.359C555.316 258.025 555.466 260.329 556.182 262.427C552.358 263.135 548.504 263.695 544.718 264.606ZM525.222 255.707C522.227 256.444 519.166 258.055 516.662 255.274C516.258 254.826 515.904 255.274 515.952 253.892C516.002 252.434 517.286 251.496 518.391 250.982C520.989 249.776 524.631 250.556 527.39 250.379C531.791 250.097 536.271 249.155 540.624 248.43C543.638 247.928 546.752 246.814 549.832 247.034C552.211 247.203 555.081 249.291 551.614 250.813C548.457 252.201 543.724 251.988 540.304 252.589C535.249 253.477 530.211 254.479 525.222 255.707ZM522.296 241.2C522.49 241.403 522.684 241.607 522.878 241.81C522.846 241.803 524.027 240.819 524.339 240.79C525.858 240.654 527.385 240.762 528.905 240.673C532.409 240.47 535.94 239.841 539.381 239.149C542.184 238.585 545.04 237.614 547.925 237.857C550.423 238.068 550.685 238.595 550.849 241.077C544.473 241.077 537.905 240.939 531.638 242.328C527.559 243.232 523.063 245.926 521.019 241.071C521.445 241.114 521.87 241.157 522.296 241.2ZM526.283 230.691C527.864 231.931 532.174 229.869 534.069 229.663C536.127 229.439 538.063 229.206 540.057 228.678C541.825 228.21 547.676 225.87 549.032 228.108C551.111 231.536 542.692 232.165 541.357 232.335C535.759 233.047 529.951 233.679 524.503 235.191C525.097 233.691 525.69 232.191 526.283 230.691ZM533.962 219.046C534.37 220.63 547.03 214.79 547.261 219.035C547.438 222.291 534.735 223.914 532.451 223.628C532.986 222.128 534.409 220.786 533.962 219.046ZM538.212 209.084C538.481 205.887 538.898 205.906 541.387 205.605C543.286 205.375 545.896 204.229 545.402 207.713C544.979 210.697 537.941 212.31 538.212 209.084ZM542.737 198.085C543.336 196.369 544.684 198.679 544.713 199.552C544.788 201.874 543.078 201.372 541.432 201.372C541.89 200.287 542.326 199.19 542.737 198.085ZM563.573 185.203C563.238 184.786 561.353 184.627 560.816 184.425C559.497 183.927 559.685 182.867 557.997 183.913C557.913 183.825 558.073 183.039 557.981 183.003C557.935 182.984 556.753 182.525 556.368 182.271C555.441 181.66 554.605 181.061 553.753 180.294C552.847 179.479 551.94 178.296 550.905 177.646C550.469 177.373 550.112 176.985 549.586 176.901C548.222 176.685 548.613 177.663 547.42 177.858C546.685 177.978 546.15 177.094 545.189 177.475C544.358 177.804 543.876 179.003 543.506 179.717C542.161 182.314 541.123 185.11 539.806 187.735C533.072 201.158 525.418 214.072 518.895 227.62C515.753 234.147 512.475 240.72 510.263 247.656C508.669 252.659 505.068 259.967 508.166 264.966C510.419 268.6 514.929 270.17 518.527 271.926C523.942 274.569 528.933 278.022 534.407 280.585C540.935 283.64 547.273 286.836 553.636 290.247C556.35 291.702 558.798 293.798 561.503 295.176C563.157 296.019 565.712 294.581 566.25 296.513C568.324 293.927 571.68 295.651 574.078 293.83C575.489 292.759 576.52 290.65 577.697 289.331C579.462 287.353 581.378 285.519 583.179 283.576C590.327 275.859 596.928 267.822 603.432 259.533C609.644 251.618 616.901 244.14 622.148 235.476C624.232 232.037 624.61 228.43 623.235 224.631C622.23 221.859 619.812 217.673 616.356 219.509C617.667 217.269 612.613 214.876 611.079 214.438C611.056 214.432 610.754 216.153 610.327 216.11C610.479 216.125 609.042 212.297 608.411 211.806C606.536 210.346 604.256 208.642 602.211 207.44C600.336 206.337 598.356 205.791 596.539 204.557C594.337 203.063 592.315 201.289 590.104 199.804C587.97 198.371 585.591 196.676 583.231 195.691C581.186 194.836 579.349 194.668 577.508 193.267C575.231 191.533 573.245 190.357 570.619 189.162C568.347 188.129 565.198 187.226 563.573 185.203Z" fill="#2D3D8B"/>
<path fill-rule="evenodd" clip-rule="evenodd" d="M253.454 392.811C253.872 391.801 254.289 390.791 254.706 389.781C255.223 391.542 255.367 392.418 253.454 392.811ZM254.01 397.477C253.105 397.644 253.462 394.721 253.462 394.211C255.025 395.123 253.73 396.215 254.01 397.477ZM252.599 389.044C253.371 388.575 254.142 388.106 254.914 387.637C253.839 389.687 254.261 388.406 254.704 389.775C253.894 390.015 253.106 389.735 252.599 389.044ZM248.027 405.063C245.135 415.867 235.95 424.387 226.249 428.801C220.674 431.336 215.193 431.971 209.173 431.688C206.851 431.579 204.119 430.802 201.884 430.947C200.164 431.058 200.242 431.135 198.816 432.634C198.186 431.439 198.643 430.6 197.378 429.904C195.8 429.036 195.145 430.047 194.362 431.249C193.338 430.156 192.919 429.585 191.591 428.936C191.633 428.957 190.321 428.905 190.374 428.922C190.137 428.847 188.71 427.902 188.263 427.73C186.429 427.022 184.309 426.731 182.617 425.714C181.136 424.827 179.917 422.336 178.224 424.25C178.222 421.051 174.037 419.724 172.076 418.049C169.011 415.431 166.574 411.554 165.046 407.804C163.417 403.806 162.873 399.972 162.11 395.852C161.577 392.972 158.089 388.81 160.184 385.905C160.683 387.123 160.449 388.371 161.278 389.475C162.024 387.995 162.434 386.339 162.771 384.718C162.937 383.925 163.896 381.596 163.787 380.904C163.566 379.489 161.865 379.412 162.808 377.678C164.764 379.869 166.343 376.021 164.865 374.486C164.135 375.334 163.867 376.296 163.531 377.346C161.607 373.348 166.931 374.635 165.766 371.026C167.709 370.641 168.826 370.137 169.564 368.161C170.386 365.961 169.781 365.482 171.647 364.028C172.288 363.529 174.103 362.811 174.435 361.989C175.077 360.401 173.443 359.93 174.874 358.442C175.358 359.315 177.242 361.045 178.274 359.399C178.481 359.071 177.613 358.838 178.244 358.082C179.179 356.964 180.225 355.867 181.806 356.102C180.554 352.879 188.554 352.624 190.603 351.864C192.656 351.102 194.398 350.602 196.575 350.425C198.75 350.249 198.858 349.593 200.7 348.244C200.856 350.173 201.306 349.749 202.638 350.09C202.958 349.524 203.286 349.461 203.622 349.899C203.956 350.226 204.365 350.38 204.847 350.362C205.578 350.401 206.408 350.303 207.174 350.319C208.973 350.355 210.829 350.2 212.593 350.24C213.048 350.161 213.473 349.998 213.872 349.75C214.038 350.073 214.205 350.396 214.371 350.72C215.306 350.84 215.378 352.046 216.528 350.727C216.868 352.404 217.846 351.532 218.878 351.987C219.82 352.402 219.97 353.066 220.839 353.529C221.41 354.006 222.023 354.069 222.678 353.72C223.301 354.195 223.934 354.657 224.575 355.105C225.758 355.792 227.152 356.213 228.398 356.756C229.226 357.108 230.05 357.475 230.867 357.854C230.892 358.87 231.334 359.229 232.194 358.93C232.97 359.599 233.189 359.573 233.943 360.712C235.65 363.294 237.164 365.3 239.32 367.608C248.692 377.641 251.571 391.825 248.027 405.063ZM250.904 362.401C246.672 356.567 240.684 349.886 235.302 346.202C232.574 344.333 228.745 340.98 225.409 339.992C224.619 339.758 223.8 339.742 223.023 339.497C222.422 339.307 222.095 338.672 221.41 338.558C220.931 338.478 220.878 339.582 220.37 339.48C219.306 339.267 218.631 338.18 217.88 337.5C216.266 340.363 215.39 335.548 213.021 338.785C210.2 334.232 203.575 335.228 199.072 335.457C197.736 335.525 197.109 336.014 195.925 336.377C194.823 336.714 194.714 336.627 193.51 336.618C190.513 336.594 187.853 336.982 185.082 338.337C180.428 340.614 176.156 344.161 171.736 346.904C166.795 349.97 162.341 353.872 158.562 358.357C144.898 374.571 141.244 398.238 152.139 417.035C169.445 446.889 214.085 450.079 239.379 429.823C258.922 414.172 266.359 383.707 250.904 362.401Z" fill="#2D3D8B"/>
<path fill-rule="evenodd" clip-rule="evenodd" d="M465.099 278.389C464.613 279.582 460.078 279.18 459.978 277.774C459.831 275.672 465.943 276.316 465.099 278.389ZM469.916 277.609C472.487 277.824 476.71 279.621 479.187 278.535C482.967 276.877 478.997 274.333 476.969 273.572C474.906 272.799 471.832 273.21 470.771 270.988C469.972 269.317 471.945 264.652 469.498 265.402C466.93 266.189 467.677 272.871 463.647 270.619C461.725 269.544 462.509 262.997 459.29 266.342C458.409 267.257 458.332 268.937 457.165 269.619C455.974 270.316 454.481 269.59 453.223 269.651C449.895 269.811 448.835 273.017 452.207 274.288C453.455 274.759 458.16 275.334 455.31 277.434C453.514 278.757 449.525 275.981 447.983 278.284C445.863 281.448 451.541 281.519 453.066 282.465C455.65 284.068 453.516 287.811 453.722 290.477C454.037 294.55 456.335 293.699 457.17 290.252C457.878 287.328 457.001 283.118 461.283 284.28C468.256 286.173 457.405 295.288 462.513 297.62C465.77 299.108 466.231 291.068 466.484 289.684C467.42 284.574 470.207 285.766 474.43 285.923C479.364 286.106 480.554 282.349 475.33 281.272C473.663 280.929 471.371 281.363 469.923 280.27C469.067 279.624 467.889 277.44 469.916 277.609Z" fill="#2D3D8B"/>
<path fill-rule="evenodd" clip-rule="evenodd" d="M287.776 444.54C283.784 443.068 277.105 443.386 276.117 448.696C275.704 450.918 276.509 453.269 277.999 454.884C279.728 456.756 282.481 456.93 282.334 453.669C282.232 451.413 280.147 449.453 283.813 448.998C286.094 448.716 289.469 450.473 289.582 453.068C289.839 458.917 280.006 459.376 276.382 458.364C269.189 456.357 271.144 448.6 276.083 445.06C277.358 444.145 281.02 442.737 281.187 440.837C281.409 438.317 278.383 438.832 276.9 439.164C265.997 441.607 263.621 460.414 275.013 463.959C280.186 465.568 287.472 463.907 290.59 459.082C293.513 454.559 293.552 446.67 287.776 444.54Z" fill="#2D3D8B"/>
<path fill-rule="evenodd" clip-rule="evenodd" d="M143.218 311.409C139.809 313.099 136.401 314.788 132.994 316.477C131.867 313.995 129.964 307.214 127.106 306.348C122.481 304.946 125.426 312.338 126.224 314.028C126.88 315.416 128.402 317.567 128.032 319.222C127.537 321.452 124.482 322.241 122.883 323.391C118.927 326.238 118.958 332.218 124.688 329.684C127.931 328.25 131.946 324.273 134.431 328.788C135.578 330.872 138.297 342.512 141.137 334.899C142.894 330.186 134.437 325.29 138.606 321.303C139.948 320.02 141.519 319.911 142.86 319.174C146.098 317.392 144.272 314.1 143.218 311.409Z" fill="#2D3D8B"/>
<path fill-rule="evenodd" clip-rule="evenodd" d="M642.867 142.753C640.835 141.987 638.321 140.493 636.063 141.003C633.663 141.543 632.697 144.019 630.951 145.507C626.207 149.553 623.444 143.522 620.837 140.217C618.375 137.097 615.371 136.339 611.897 138.257C610.513 139.021 604.682 142.524 605.699 144.768C606.43 146.383 609.311 144.933 610.294 144.58C612.427 143.816 614.408 143.147 616.589 144.261C620.682 146.351 621.743 152.081 626.694 152.975C631.814 153.899 631.982 148.882 635.635 146.994C638.085 145.729 639.791 147.969 642.154 147.523C644.406 147.098 645.447 143.724 642.867 142.753Z" fill="#2D3D8B"/>
<path fill-rule="evenodd" clip-rule="evenodd" d="M601.534 162.97C603.344 163.375 604.526 159.759 605.659 158.842C607.54 157.321 610.799 157.015 612.714 158.545C616.452 161.532 615.164 167.981 620.487 169.661C625.245 171.164 627.486 164.712 631.491 163.105C633.82 162.171 636.376 161.56 635.467 158.208C634.84 155.89 632.991 155.295 630.981 156.185C627.527 157.714 626.354 163.942 622.259 164.053C618.021 164.169 617.562 157.879 615.743 155.14C612.97 150.964 607.269 149.956 604.029 153.948C603.051 155.153 598.085 162.201 601.534 162.97Z" fill="#2D3D8B"/>
<path fill-rule="evenodd" clip-rule="evenodd" d="M517.779 91.6703C520.298 93.4449 525.318 93.3835 527.638 91.1825C529.999 88.9431 526.847 88.5989 524.924 88.6673C523.444 88.7203 520.675 89.4755 521.518 86.8443C522.266 84.5097 526.379 85.6981 526.723 83.1353C523.627 82.5637 520.217 82.7696 517.928 85.2748C516.272 87.0855 515.422 90.0086 517.779 91.6703Z" fill="#2D3D8B"/>
</svg>
